<?xml version="1.0" encoding="UTF-8"?>
<svg xmlns="http://www.w3.org/2000/svg" xmlns:xlink="http://www.w3.org/1999/xlink" width="165pt" height="82.499998pt" viewBox="0 0 165 82.499998" version="1.2">
<defs>
<clipPath id="clip1">
  <path d="M 0.496094 0 L 164.503906 0 L 164.503906 82.003906 L 0.496094 82.003906 Z M 0.496094 0 "/>
</clipPath>
</defs>
<g id="surface1">
<g clip-path="url(#clip1)" clip-rule="nonzero">
<path style=" stroke:none;fill-rule:nonzero;fill:rgb(100%,100%,100%);fill-opacity:1;" d="M 0.496094 0 L 164.503906 0 L 164.503906 89.457031 L 0.496094 89.457031 Z M 0.496094 0 "/>
<path style=" stroke:none;fill-rule:nonzero;fill:rgb(100%,100%,100%);fill-opacity:1;" d="M 0.496094 0 L 164.503906 0 L 164.503906 82.003906 L 0.496094 82.003906 Z M 0.496094 0 "/>
<path style=" stroke:none;fill-rule:nonzero;fill:rgb(100%,100%,100%);fill-opacity:1;" d="M 0.496094 0 L 164.503906 0 L 164.503906 82.003906 L 0.496094 82.003906 Z M 0.496094 0 "/>
</g>
<path style=" stroke:none;fill-rule:nonzero;fill:rgb(30.198669%,31.759644%,47.839355%);fill-opacity:1;" d="M 92.167969 40.878906 C 92.859375 39.992188 93.34375 39.144531 93.625 38.378906 C 93.949219 37.613281 94.113281 36.808594 94.113281 36 C 94.113281 34.269531 93.503906 32.816406 92.332031 31.648438 C 91.15625 30.480469 89.621094 29.917969 87.796875 29.917969 C 85.734375 29.917969 83.871094 30.683594 82.292969 32.214844 L 83.871094 33.824219 C 85.125 32.65625 86.421875 32.050781 87.796875 32.050781 C 88.972656 32.050781 89.902344 32.414062 90.632812 33.140625 C 91.359375 33.867188 91.683594 34.832031 91.683594 35.960938 C 91.683594 36.644531 91.5625 37.210938 91.320312 37.773438 C 91.078125 38.296875 90.671875 38.941406 90.144531 39.667969 L 82.128906 50.308594 L 82.128906 51.957031 L 94.800781 51.957031 L 94.800781 49.863281 L 85.410156 49.863281 Z M 92.167969 40.878906 "/>
<path style=" stroke:none;fill-rule:nonzero;fill:rgb(30.198669%,31.759644%,47.839355%);fill-opacity:1;" d="M 110.910156 36.96875 C 110.871094 36.242188 110.832031 35.679688 110.75 35.316406 C 110.667969 34.953125 110.585938 34.511719 110.425781 34.027344 C 110.304688 33.542969 110.140625 33.140625 109.941406 32.816406 C 109.738281 32.496094 109.496094 32.132812 109.171875 31.8125 C 108.644531 31.246094 107.957031 30.761719 107.148438 30.441406 C 106.335938 30.117188 105.445312 29.957031 104.476562 29.957031 C 103.503906 29.957031 102.613281 30.117188 101.804688 30.441406 C 100.992188 30.761719 100.304688 31.246094 99.78125 31.8125 C 99.496094 32.132812 99.210938 32.457031 99.011719 32.816406 C 98.808594 33.140625 98.644531 33.582031 98.523438 34.027344 C 98.402344 34.511719 98.28125 34.914062 98.199219 35.316406 C 98.121094 35.679688 98.078125 36.242188 98.039062 36.96875 C 98 37.695312 98 38.339844 98 38.820312 C 98 39.304688 98 40.070312 98 41.121094 C 98 42.167969 98 42.933594 98 43.417969 C 98 43.898438 98.039062 44.503906 98.039062 45.269531 C 98.078125 45.996094 98.121094 46.558594 98.199219 46.921875 C 98.28125 47.285156 98.363281 47.726562 98.523438 48.210938 C 98.644531 48.695312 98.808594 49.097656 99.011719 49.421875 C 99.210938 49.742188 99.457031 50.105469 99.78125 50.425781 C 100.304688 50.992188 100.992188 51.476562 101.804688 51.796875 C 102.613281 52.121094 103.503906 52.28125 104.476562 52.28125 C 105.445312 52.28125 106.335938 52.121094 107.148438 51.796875 C 107.957031 51.476562 108.644531 50.992188 109.171875 50.425781 C 109.453125 50.105469 109.738281 49.78125 109.941406 49.421875 C 110.140625 49.097656 110.304688 48.65625 110.425781 48.210938 C 110.546875 47.726562 110.667969 47.324219 110.75 46.921875 C 110.832031 46.558594 110.871094 45.996094 110.910156 45.269531 C 110.953125 44.542969 110.953125 43.898438 110.953125 43.417969 C 110.953125 42.933594 110.953125 42.167969 110.953125 41.121094 C 110.953125 40.070312 110.953125 39.304688 110.953125 38.820312 C 110.992188 38.296875 110.953125 37.695312 110.910156 36.96875 Z M 108.5625 43.496094 C 108.5625 43.980469 108.523438 44.625 108.484375 45.308594 C 108.441406 46.035156 108.359375 46.558594 108.28125 46.921875 C 108.199219 47.285156 108.078125 47.648438 107.914062 48.050781 C 107.753906 48.414062 107.59375 48.734375 107.347656 49.015625 C 106.660156 49.78125 105.730469 50.144531 104.476562 50.144531 C 103.21875 50.144531 102.289062 49.78125 101.601562 49.015625 C 101.359375 48.777344 101.15625 48.453125 101.035156 48.050781 C 100.871094 47.6875 100.75 47.285156 100.671875 46.921875 C 100.589844 46.558594 100.507812 46.035156 100.46875 45.308594 C 100.425781 44.585938 100.386719 43.980469 100.386719 43.496094 C 100.386719 43.011719 100.386719 42.207031 100.386719 41.121094 C 100.386719 40.03125 100.386719 39.226562 100.386719 38.742188 C 100.386719 38.257812 100.425781 37.613281 100.46875 36.929688 C 100.507812 36.203125 100.589844 35.679688 100.671875 35.316406 C 100.75 34.953125 100.871094 34.589844 101.035156 34.1875 C 101.195312 33.824219 101.359375 33.503906 101.601562 33.222656 C 102.289062 32.457031 103.21875 32.09375 104.476562 32.09375 C 105.730469 32.09375 106.660156 32.457031 107.347656 33.222656 C 107.59375 33.460938 107.792969 33.785156 107.914062 34.1875 C 108.078125 34.550781 108.199219 34.953125 108.28125 35.316406 C 108.359375 35.679688 108.441406 36.203125 108.484375 36.929688 C 108.523438 37.652344 108.5625 38.257812 108.5625 38.742188 C 108.5625 39.226562 108.5625 40.03125 108.5625 41.121094 C 108.5625 42.207031 108.5625 43.011719 108.5625 43.496094 Z M 108.5625 43.496094 "/>
<path style=" stroke:none;fill-rule:nonzero;fill:rgb(30.198669%,31.759644%,47.839355%);fill-opacity:1;" d="M 120.464844 50.1875 C 119.816406 50.1875 119.371094 49.902344 119.128906 49.339844 C 119.046875 49.097656 119.007812 48.453125 119.007812 47.324219 L 119.007812 37.25 L 122.082031 37.25 L 122.082031 35.355469 L 119.007812 35.355469 L 119.007812 31.769531 L 116.699219 31.769531 L 116.699219 35.355469 L 114.394531 35.355469 L 114.394531 37.25 L 116.699219 37.25 L 116.699219 47.324219 C 116.699219 48.574219 116.742188 49.421875 116.863281 49.824219 C 117.105469 50.589844 117.507812 51.191406 118.117188 51.636719 C 118.722656 52.039062 119.453125 52.28125 120.34375 52.28125 C 121.234375 52.28125 122.207031 52.078125 123.175781 51.636719 L 122.285156 49.742188 C 121.558594 50.023438 120.992188 50.1875 120.464844 50.1875 Z M 120.464844 50.1875 "/>
<path style=" stroke:none;fill-rule:nonzero;fill:rgb(30.198669%,31.759644%,47.839355%);fill-opacity:1;" d="M 134.957031 36.082031 C 133.945312 35.4375 132.730469 35.113281 131.355469 35.113281 C 129.9375 35.113281 128.277344 35.558594 126.414062 36.40625 L 127.304688 38.296875 C 128.882812 37.53125 130.21875 37.171875 131.355469 37.171875 C 132.121094 37.171875 132.851562 37.332031 133.457031 37.695312 C 134.066406 38.054688 134.511719 38.582031 134.753906 39.265625 C 134.875 39.546875 134.957031 39.910156 134.957031 40.234375 C 134.996094 40.59375 134.996094 41.160156 134.996094 42.003906 L 132.648438 42.003906 C 132 42.003906 131.554688 42.003906 131.230469 42.003906 C 130.910156 42.003906 130.542969 42.046875 130.140625 42.085938 C 129.734375 42.125 129.371094 42.207031 129.007812 42.328125 C 127.832031 42.691406 126.941406 43.296875 126.335938 44.140625 C 125.6875 44.988281 125.402344 45.996094 125.402344 47.082031 C 125.402344 48.574219 125.890625 49.78125 126.902344 50.789062 C 127.914062 51.796875 129.167969 52.28125 130.746094 52.28125 C 132.40625 52.28125 133.824219 51.597656 134.996094 50.265625 L 134.996094 52.039062 L 137.304688 52.039062 L 137.304688 42.003906 C 137.304688 40.515625 137.222656 39.46875 137.0625 38.941406 C 136.65625 37.695312 135.96875 36.765625 134.957031 36.082031 Z M 134.957031 45.59375 C 134.957031 45.953125 134.914062 46.316406 134.875 46.679688 C 134.835938 47.082031 134.753906 47.40625 134.671875 47.726562 C 134.390625 48.574219 133.945312 49.179688 133.296875 49.582031 C 132.648438 49.984375 131.878906 50.1875 131.03125 50.1875 C 129.976562 50.1875 129.167969 49.902344 128.5625 49.300781 C 127.992188 48.695312 127.671875 47.96875 127.671875 47.082031 C 127.671875 46.359375 127.832031 45.753906 128.195312 45.230469 C 128.5625 44.707031 129.085938 44.34375 129.734375 44.140625 C 130.21875 43.980469 131.191406 43.941406 132.691406 43.941406 L 134.914062 43.941406 C 134.957031 44.707031 134.957031 45.230469 134.957031 45.59375 Z M 134.957031 45.59375 "/>
<path style=" stroke:none;fill-rule:nonzero;fill:rgb(30.198669%,31.759644%,47.839355%);fill-opacity:1;" d="M 154.0625 40.113281 C 153.902344 39.183594 153.578125 38.339844 153.050781 37.574219 C 152.566406 36.847656 151.878906 36.242188 151.027344 35.800781 C 150.175781 35.355469 149.207031 35.113281 148.152344 35.113281 C 146.453125 35.113281 144.953125 35.800781 143.742188 37.128906 L 143.742188 28.988281 L 141.433594 28.988281 L 141.433594 52.039062 L 143.742188 52.039062 L 143.742188 50.265625 C 144.953125 51.597656 146.453125 52.28125 148.152344 52.28125 C 149.207031 52.28125 150.175781 52.039062 151.027344 51.597656 C 151.878906 51.152344 152.566406 50.546875 153.050781 49.824219 C 153.578125 49.058594 153.902344 48.210938 154.0625 47.285156 C 154.226562 46.359375 154.304688 45.1875 154.304688 43.699219 C 154.304688 42.207031 154.226562 41.039062 154.0625 40.113281 Z M 151.796875 46.761719 C 151.675781 47.527344 151.433594 48.171875 151.027344 48.695312 C 150.296875 49.703125 149.246094 50.1875 147.871094 50.1875 C 146.492188 50.1875 145.441406 49.703125 144.710938 48.695312 C 144.308594 48.171875 144.0625 47.527344 143.941406 46.761719 C 143.820312 45.996094 143.78125 44.988281 143.78125 43.699219 C 143.78125 42.410156 143.820312 41.402344 143.941406 40.636719 C 144.0625 39.871094 144.308594 39.226562 144.710938 38.703125 C 145.441406 37.695312 146.492188 37.210938 147.871094 37.210938 C 149.246094 37.210938 150.296875 37.695312 151.027344 38.703125 C 151.433594 39.226562 151.675781 39.871094 151.796875 40.636719 C 151.917969 41.402344 151.957031 42.410156 151.957031 43.699219 C 152 44.988281 151.917969 45.996094 151.796875 46.761719 Z M 151.796875 46.761719 "/>
<path style=" stroke:none;fill-rule:nonzero;fill:rgb(30.198669%,31.759644%,47.839355%);fill-opacity:1;" d="M 37.320312 13.234375 C 21.9375 13.234375 9.429688 25.644531 9.429688 41 C 9.429688 56.351562 21.9375 68.761719 37.320312 68.761719 C 52.742188 68.761719 65.210938 56.3125 65.210938 41 C 65.210938 25.683594 52.742188 13.234375 37.320312 13.234375 Z M 27.726562 21.496094 C 27.726562 19.320312 29.507812 17.585938 31.652344 17.585938 C 33.839844 17.585938 35.578125 19.359375 35.578125 21.496094 C 35.578125 21.738281 35.539062 27.257812 33.351562 30.761719 C 33.3125 30.804688 30.84375 34.832031 30.277344 38.21875 L 34.972656 38.175781 C 35.621094 38.175781 36.144531 38.703125 36.1875 39.347656 C 36.1875 39.992188 35.660156 40.554688 35.011719 40.554688 L 28.980469 40.59375 C 28.65625 40.59375 28.375 40.472656 28.128906 40.234375 C 27.886719 39.992188 27.765625 39.707031 27.765625 39.386719 C 27.804688 35.195312 31.167969 29.714844 31.328125 29.515625 C 33.191406 26.613281 33.191406 21.535156 33.191406 21.496094 C 33.191406 20.648438 32.503906 19.964844 31.652344 19.964844 C 30.800781 19.964844 30.113281 20.648438 30.113281 21.496094 L 30.113281 25.160156 C 30.113281 25.804688 29.585938 26.371094 28.898438 26.371094 C 28.25 26.371094 27.683594 25.847656 27.683594 25.160156 L 27.683594 21.496094 Z M 40.234375 53.691406 L 34.972656 59.011719 C 34.730469 59.253906 34.40625 59.453125 34.039062 59.453125 C 33.3125 59.453125 32.746094 58.851562 32.746094 58.125 C 32.746094 57.761719 32.867188 57.4375 33.148438 57.15625 L 36.144531 54.136719 L 29.0625 54.136719 C 28.332031 54.136719 27.726562 53.570312 27.726562 52.84375 C 27.726562 52.121094 28.332031 51.515625 29.0625 51.515625 L 36.105469 51.515625 L 33.070312 48.535156 C 32.824219 48.292969 32.664062 48.011719 32.664062 47.648438 C 32.664062 46.921875 33.269531 46.316406 34 46.316406 C 34.363281 46.316406 34.6875 46.480469 34.929688 46.71875 L 40.195312 51.957031 C 40.4375 52.199219 40.597656 52.484375 40.597656 52.84375 C 40.597656 53.207031 40.476562 53.449219 40.234375 53.691406 Z M 45.617188 62.355469 C 45.617188 63.082031 45.011719 63.683594 44.28125 63.683594 C 43.554688 63.683594 42.945312 63.082031 42.945312 62.355469 L 42.945312 43.699219 C 42.945312 42.972656 43.554688 42.410156 44.28125 42.410156 C 45.011719 42.410156 45.617188 43.011719 45.617188 43.699219 Z M 45.738281 36.96875 C 45.738281 39.144531 43.957031 40.878906 41.8125 40.878906 C 39.625 40.878906 37.886719 39.105469 37.886719 36.96875 L 37.886719 21.496094 C 37.886719 19.320312 39.667969 17.585938 41.8125 17.585938 C 44 17.585938 45.738281 19.359375 45.738281 21.496094 Z M 45.738281 36.96875 "/>
<path style=" stroke:none;fill-rule:nonzero;fill:rgb(30.198669%,31.759644%,47.839355%);fill-opacity:1;" d="M 41.773438 19.964844 C 40.921875 19.964844 40.234375 20.648438 40.234375 21.496094 L 40.234375 36.96875 C 40.234375 37.816406 40.921875 38.5 41.773438 38.5 C 42.621094 38.5 43.308594 37.816406 43.308594 36.96875 L 43.308594 21.496094 C 43.351562 20.648438 42.664062 19.964844 41.773438 19.964844 Z M 41.773438 19.964844 "/>
<path style=" stroke:none;fill-rule:nonzero;fill:rgb(100%,100%,100%);fill-opacity:1;" d="M 34.972656 46.71875 C 34.730469 46.480469 34.40625 46.316406 34.039062 46.316406 C 33.3125 46.316406 32.703125 46.921875 32.703125 47.648438 C 32.703125 48.011719 32.867188 48.292969 33.109375 48.535156 L 36.144531 51.515625 L 29.0625 51.515625 C 28.332031 51.515625 27.726562 52.121094 27.726562 52.84375 C 27.726562 53.570312 28.332031 54.136719 29.0625 54.136719 L 36.144531 54.136719 L 33.148438 57.15625 C 32.90625 57.398438 32.746094 57.761719 32.746094 58.125 C 32.746094 58.851562 33.3125 59.453125 34.039062 59.453125 C 34.40625 59.453125 34.730469 59.253906 34.972656 59.011719 L 40.234375 53.691406 C 40.476562 53.449219 40.636719 53.207031 40.636719 52.84375 C 40.636719 52.484375 40.476562 52.199219 40.234375 51.960938 Z M 34.972656 46.71875 "/>
<path style=" stroke:none;fill-rule:nonzero;fill:rgb(100%,100%,100%);fill-opacity:1;" d="M 44.28125 42.367188 C 43.554688 42.367188 42.945312 42.972656 42.945312 43.65625 L 42.945312 62.355469 C 42.945312 63.082031 43.554688 63.683594 44.28125 63.683594 C 45.011719 63.683594 45.617188 63.082031 45.617188 62.355469 L 45.617188 43.699219 C 45.617188 42.972656 45.011719 42.367188 44.28125 42.367188 Z M 44.28125 42.367188 "/>
<path style=" stroke:none;fill-rule:nonzero;fill:rgb(100%,100%,100%);fill-opacity:1;" d="M 41.773438 17.585938 C 39.585938 17.585938 37.84375 19.359375 37.84375 21.496094 L 37.84375 36.96875 C 37.84375 39.144531 39.625 40.878906 41.773438 40.878906 C 43.957031 40.878906 45.699219 39.105469 45.699219 36.96875 L 45.699219 21.496094 C 45.738281 19.359375 43.957031 17.585938 41.773438 17.585938 Z M 43.351562 36.96875 C 43.351562 37.816406 42.664062 38.5 41.8125 38.5 C 40.960938 38.5 40.273438 37.816406 40.273438 36.96875 L 40.273438 21.496094 C 40.273438 20.648438 40.960938 19.964844 41.8125 19.964844 C 42.664062 19.964844 43.351562 20.648438 43.351562 21.496094 Z M 43.351562 36.96875 "/>
<path style=" stroke:none;fill-rule:nonzero;fill:rgb(100%,100%,100%);fill-opacity:1;" d="M 28.898438 26.371094 C 29.546875 26.371094 30.113281 25.847656 30.113281 25.160156 L 30.113281 21.496094 C 30.113281 20.648438 30.800781 19.964844 31.652344 19.964844 C 32.503906 19.964844 33.191406 20.648438 33.191406 21.496094 C 33.191406 21.535156 33.148438 26.570312 31.328125 29.515625 C 31.167969 29.753906 27.847656 35.234375 27.765625 39.386719 C 27.765625 39.707031 27.886719 40.03125 28.128906 40.234375 C 28.375 40.472656 28.65625 40.59375 28.980469 40.59375 L 34.972656 40.554688 C 35.621094 40.554688 36.144531 40.03125 36.144531 39.347656 C 36.144531 38.703125 35.621094 38.175781 34.929688 38.175781 L 30.277344 38.21875 C 30.84375 34.832031 33.3125 30.804688 33.351562 30.761719 C 35.578125 27.257812 35.578125 21.738281 35.578125 21.496094 C 35.578125 19.320312 33.796875 17.585938 31.652344 17.585938 C 29.464844 17.585938 27.726562 19.359375 27.726562 21.496094 L 27.726562 25.160156 C 27.726562 25.847656 28.25 26.371094 28.898438 26.371094 Z M 28.898438 26.371094 "/>
</g>
</svg>
