<?xml version="1.0" encoding="UTF-8"?>
<svg xmlns="http://www.w3.org/2000/svg" xmlns:xlink="http://www.w3.org/1999/xlink" width="165pt" height="82.499998pt" viewBox="0 0 165 82.499998" version="1.2">
<defs>
<clipPath id="clip1">
  <path d="M 0.496094 0 L 164.503906 0 L 164.503906 82.003906 L 0.496094 82.003906 Z M 0.496094 0 "/>
</clipPath>
<clipPath id="clip2">
  <path d="M 134 25.789062 L 140 25.789062 L 140 31 L 134 31 Z M 134 25.789062 "/>
</clipPath>
<clipPath id="clip3">
  <path d="M 7.335938 31 L 20 31 L 20 47 L 7.335938 47 Z M 7.335938 31 "/>
</clipPath>
<clipPath id="clip4">
  <path d="M 141 31 L 154.941406 31 L 154.941406 47 L 141 47 Z M 141 31 "/>
</clipPath>
<clipPath id="clip5">
  <path d="M 81 52 L 86 52 L 86 56.351562 L 81 56.351562 Z M 81 52 "/>
</clipPath>
<clipPath id="clip6">
  <path d="M 101 52 L 106 52 L 106 56.351562 L 101 56.351562 Z M 101 52 "/>
</clipPath>
<clipPath id="clip7">
  <path d="M 140 52 L 144 52 L 144 56.351562 L 140 56.351562 Z M 140 52 "/>
</clipPath>
<clipPath id="clip8">
  <path d="M 150 52 L 154.941406 52 L 154.941406 56.351562 L 150 56.351562 Z M 150 52 "/>
</clipPath>
</defs>
<g id="surface1">
<g clip-path="url(#clip1)" clip-rule="nonzero">
<path style=" stroke:none;fill-rule:nonzero;fill:rgb(100%,100%,100%);fill-opacity:1;" d="M 0.496094 0 L 164.503906 0 L 164.503906 82.003906 L 0.496094 82.003906 Z M 0.496094 0 "/>
<path style=" stroke:none;fill-rule:nonzero;fill:rgb(100%,100%,100%);fill-opacity:1;" d="M 0.496094 0 L 164.503906 0 L 164.503906 82.003906 L 0.496094 82.003906 Z M 0.496094 0 "/>
</g>
<path style=" stroke:none;fill-rule:nonzero;fill:rgb(20.388794%,45.878601%,70.588684%);fill-opacity:1;" d="M 33.820312 31.816406 L 28.46875 48.273438 C 28.285156 48.863281 28.015625 49.414062 27.652344 49.917969 C 27.335938 50.382812 26.9375 50.757812 26.457031 51.050781 C 26.109375 51.238281 25.742188 51.351562 25.347656 51.382812 C 24.914062 51.433594 24.476562 51.460938 24.035156 51.460938 C 23.617188 51.460938 23.199219 51.421875 22.789062 51.34375 C 22.371094 51.273438 21.964844 51.167969 21.566406 51.03125 C 21.648438 50.585938 21.734375 50.140625 21.820312 49.695312 C 21.90625 49.25 22 48.804688 22.101562 48.359375 C 22.382812 48.460938 22.671875 48.546875 22.96875 48.617188 C 23.261719 48.683594 23.558594 48.71875 23.859375 48.71875 C 24.296875 48.730469 24.707031 48.628906 25.09375 48.421875 C 25.269531 48.328125 25.402344 48.191406 25.5 48.015625 C 25.597656 47.839844 25.636719 47.648438 25.621094 47.449219 C 25.613281 47.203125 25.570312 46.964844 25.496094 46.730469 L 20.605469 31.816406 L 24.011719 31.816406 L 27.21875 41.867188 L 30.355469 31.816406 Z M 33.820312 31.816406 "/>
<path style=" stroke:none;fill-rule:nonzero;fill:rgb(20.388794%,45.878601%,70.588684%);fill-opacity:1;" d="M 47.730469 46.421875 L 44.453125 46.421875 L 44.453125 37.292969 C 44.453125 36.386719 44.238281 35.707031 43.816406 35.261719 C 43.390625 34.816406 42.789062 34.59375 42.003906 34.59375 C 41.628906 34.597656 41.273438 34.679688 40.933594 34.835938 C 40.574219 35.003906 40.246094 35.222656 39.957031 35.5 C 39.671875 35.769531 39.4375 36.085938 39.257812 36.4375 C 39.082031 36.773438 38.992188 37.128906 38.992188 37.507812 L 38.992188 46.429688 L 35.78125 46.429688 L 35.78125 31.816406 L 38.992188 31.816406 L 38.992188 33 C 39.476562 32.507812 40.03125 32.117188 40.660156 31.828125 C 41.320312 31.535156 42.011719 31.394531 42.734375 31.40625 C 43.484375 31.390625 44.207031 31.511719 44.910156 31.769531 C 45.507812 31.996094 46.027344 32.339844 46.476562 32.800781 C 46.902344 33.25 47.214844 33.769531 47.417969 34.355469 C 47.636719 34.988281 47.742188 35.636719 47.738281 36.308594 Z M 47.730469 46.421875 "/>
<path style=" stroke:none;fill-rule:nonzero;fill:rgb(20.388794%,45.878601%,70.588684%);fill-opacity:1;" d="M 88.671875 46.394531 C 88.277344 46.496094 87.828125 46.605469 87.308594 46.71875 C 86.695312 46.835938 86.082031 46.890625 85.460938 46.882812 C 84.996094 46.878906 84.539062 46.832031 84.085938 46.742188 C 83.617188 46.648438 83.183594 46.464844 82.785156 46.195312 C 82.375 45.910156 82.054688 45.546875 81.828125 45.097656 C 81.5625 44.523438 81.441406 43.917969 81.46875 43.285156 L 81.46875 34.59375 L 79.066406 34.59375 L 79.066406 31.816406 L 81.460938 31.816406 L 81.460938 27.855469 L 84.695312 26.394531 L 84.695312 31.816406 L 88.441406 31.816406 L 88.441406 34.59375 L 84.695312 34.59375 L 84.695312 42 C 84.695312 42.683594 84.8125 43.164062 85.039062 43.4375 C 85.269531 43.722656 85.734375 43.851562 86.460938 43.851562 C 87.035156 43.847656 87.59375 43.746094 88.132812 43.539062 Z M 88.671875 46.394531 "/>
<path style=" stroke:none;fill-rule:nonzero;fill:rgb(20.388794%,45.878601%,70.588684%);fill-opacity:1;" d="M 102.65625 46.421875 L 99.496094 46.421875 L 99.496094 37.035156 C 99.496094 36.144531 99.300781 35.503906 98.910156 35.109375 C 98.519531 34.710938 97.964844 34.515625 97.253906 34.515625 C 96.851562 34.515625 96.460938 34.578125 96.082031 34.710938 C 95.714844 34.835938 95.378906 35.019531 95.074219 35.257812 C 94.777344 35.492188 94.542969 35.777344 94.375 36.121094 C 94.199219 36.484375 94.113281 36.871094 94.121094 37.277344 L 94.121094 46.429688 L 90.960938 46.429688 L 90.960938 26.339844 L 94.121094 26.339844 L 94.121094 33.011719 C 94.652344 32.511719 95.25 32.109375 95.914062 31.8125 C 96.511719 31.558594 97.132812 31.429688 97.785156 31.429688 C 99.351562 31.429688 100.558594 31.859375 101.40625 32.710938 C 102.25 33.5625 102.671875 34.722656 102.671875 36.191406 Z M 102.65625 46.421875 "/>
<path style=" stroke:none;fill-rule:nonzero;fill:rgb(20.388794%,45.878601%,70.588684%);fill-opacity:1;" d="M 135.46875 32.367188 L 138.730469 32.367188 L 138.730469 46.421875 L 135.46875 46.421875 Z M 135.46875 32.367188 "/>
<g clip-path="url(#clip2)" clip-rule="nonzero">
<path style=" stroke:none;fill-rule:nonzero;fill:rgb(20.388794%,45.878601%,70.588684%);fill-opacity:1;" d="M 137.113281 25.8125 L 134.972656 27.972656 L 137.113281 30.128906 L 139.25 27.972656 Z M 137.113281 25.8125 "/>
</g>
<g clip-path="url(#clip3)" clip-rule="nonzero">
<path style=" stroke:none;fill-rule:nonzero;fill:rgb(20.388794%,45.878601%,70.588684%);fill-opacity:1;" d="M 18.941406 40.585938 C 18.730469 40.117188 18.433594 39.710938 18.058594 39.363281 C 17.679688 39.019531 17.257812 38.746094 16.792969 38.539062 C 16.3125 38.324219 15.816406 38.148438 15.308594 38.011719 L 12.652344 37.34375 C 11.988281 37.171875 11.558594 36.957031 11.363281 36.703125 C 11.179688 36.488281 11.082031 36.238281 11.070312 35.957031 C 11.066406 35.710938 11.128906 35.484375 11.25 35.273438 C 11.375 35.0625 11.542969 34.902344 11.757812 34.785156 C 12.3125 34.476562 12.90625 34.335938 13.542969 34.363281 C 14.199219 34.359375 14.832031 34.480469 15.4375 34.726562 C 15.925781 34.925781 16.390625 35.171875 16.832031 35.457031 L 18.953125 33.324219 C 18.167969 32.679688 17.292969 32.199219 16.328125 31.878906 C 15.355469 31.5625 14.359375 31.402344 13.335938 31.40625 C 12.625 31.40625 11.925781 31.503906 11.238281 31.703125 C 10.574219 31.882812 9.96875 32.179688 9.414062 32.589844 C 8.882812 32.984375 8.457031 33.476562 8.144531 34.066406 C 7.804688 34.714844 7.640625 35.402344 7.65625 36.136719 C 7.644531 36.691406 7.746094 37.222656 7.960938 37.730469 C 8.15625 38.183594 8.429688 38.582031 8.78125 38.925781 C 9.132812 39.261719 9.523438 39.535156 9.957031 39.75 C 10.382812 39.960938 10.828125 40.121094 11.292969 40.222656 L 13.816406 40.867188 C 14.335938 40.984375 14.816406 41.191406 15.261719 41.484375 C 15.625 41.742188 15.804688 42.050781 15.804688 42.410156 C 15.824219 42.644531 15.773438 42.867188 15.660156 43.074219 C 15.546875 43.28125 15.386719 43.441406 15.183594 43.554688 C 14.765625 43.789062 14.175781 43.90625 13.414062 43.90625 C 12.726562 43.890625 12.054688 43.773438 11.402344 43.558594 C 10.707031 43.339844 10.082031 42.992188 9.527344 42.519531 L 7.335938 44.730469 C 8.15625 45.476562 9.09375 46.023438 10.140625 46.375 C 11.179688 46.714844 12.246094 46.882812 13.335938 46.878906 C 14.085938 46.878906 14.824219 46.789062 15.554688 46.605469 C 16.234375 46.445312 16.867188 46.167969 17.453125 45.785156 C 18.003906 45.417969 18.445312 44.949219 18.777344 44.371094 C 19.125 43.738281 19.292969 43.058594 19.273438 42.332031 C 19.289062 41.726562 19.179688 41.140625 18.941406 40.585938 "/>
</g>
<path style=" stroke:none;fill-rule:nonzero;fill:rgb(20.388794%,45.878601%,70.588684%);fill-opacity:1;" d="M 54.050781 36.496094 C 54.199219 36.085938 54.421875 35.722656 54.710938 35.398438 C 55.007812 35.078125 55.359375 34.824219 55.757812 34.640625 C 56.1875 34.449219 56.636719 34.351562 57.105469 34.359375 C 57.574219 34.351562 58.023438 34.4375 58.457031 34.617188 C 58.855469 34.78125 59.210938 35.015625 59.515625 35.324219 C 59.816406 35.632812 60.039062 35.992188 60.179688 36.402344 C 60.324219 36.847656 60.390625 37.308594 60.367188 37.777344 L 53.820312 37.777344 C 53.820312 37.335938 53.894531 36.910156 54.046875 36.5 M 60.566406 42.558594 C 60.160156 42.929688 59.699219 43.210938 59.1875 43.402344 C 58.640625 43.574219 58.082031 43.652344 57.507812 43.644531 C 56.421875 43.644531 55.566406 43.367188 54.945312 42.808594 C 54.328125 42.253906 53.964844 41.417969 53.859375 40.304688 L 63.636719 40.304688 L 63.664062 39.710938 C 63.722656 38.617188 63.628906 37.53125 63.382812 36.460938 C 63.171875 35.507812 62.785156 34.632812 62.222656 33.835938 C 61.691406 33.085938 61.019531 32.5 60.207031 32.074219 C 59.285156 31.621094 58.3125 31.40625 57.289062 31.429688 C 56.246094 31.410156 55.246094 31.609375 54.289062 32.027344 C 53.453125 32.402344 52.734375 32.941406 52.136719 33.644531 C 51.542969 34.363281 51.109375 35.167969 50.839844 36.0625 C 50.539062 37.042969 50.394531 38.046875 50.402344 39.070312 C 50.394531 40.117188 50.550781 41.136719 50.875 42.128906 C 51.171875 43.046875 51.632812 43.867188 52.253906 44.597656 C 52.875 45.320312 53.617188 45.871094 54.480469 46.257812 C 55.457031 46.683594 56.476562 46.882812 57.539062 46.859375 C 58.507812 46.867188 59.445312 46.691406 60.351562 46.332031 C 61.253906 45.972656 62.058594 45.453125 62.761719 44.777344 L 62.726562 44.734375 Z M 60.566406 42.558594 "/>
<path style=" stroke:none;fill-rule:nonzero;fill:rgb(20.388794%,45.878601%,70.588684%);fill-opacity:1;" d="M 109 36.496094 C 109.148438 36.085938 109.371094 35.722656 109.664062 35.398438 C 110.308594 34.695312 111.105469 34.347656 112.058594 34.359375 C 112.523438 34.351562 112.976562 34.4375 113.40625 34.617188 C 113.804688 34.78125 114.160156 35.015625 114.464844 35.324219 C 114.769531 35.632812 114.988281 35.992188 115.128906 36.402344 C 115.273438 36.847656 115.339844 37.308594 115.320312 37.777344 L 108.769531 37.777344 C 108.769531 37.335938 108.847656 36.910156 109 36.5 M 115.519531 42.558594 C 115.113281 42.929688 114.65625 43.210938 114.140625 43.402344 C 113.59375 43.574219 113.035156 43.652344 112.460938 43.644531 C 111.375 43.644531 110.519531 43.367188 109.902344 42.808594 C 109.28125 42.253906 108.921875 41.417969 108.816406 40.304688 L 118.59375 40.304688 L 118.621094 39.710938 C 118.675781 38.617188 118.582031 37.53125 118.339844 36.460938 C 118.125 35.507812 117.738281 34.632812 117.179688 33.835938 C 116.640625 33.085938 115.960938 32.496094 115.140625 32.078125 C 114.222656 31.621094 113.25 31.40625 112.226562 31.433594 C 111.1875 31.414062 110.195312 31.609375 109.242188 32.027344 C 108.402344 32.402344 107.6875 32.941406 107.089844 33.644531 C 106.492188 34.363281 106.0625 35.167969 105.789062 36.0625 C 105.492188 37.042969 105.347656 38.046875 105.355469 39.070312 C 105.347656 40.117188 105.507812 41.132812 105.832031 42.125 C 106.128906 43.042969 106.589844 43.863281 107.210938 44.59375 C 107.832031 45.316406 108.574219 45.867188 109.4375 46.253906 C 110.414062 46.679688 111.433594 46.878906 112.496094 46.859375 C 113.46875 46.863281 114.40625 46.6875 115.308594 46.328125 C 116.210938 45.96875 117.015625 45.449219 117.71875 44.773438 L 117.683594 44.730469 Z M 115.519531 42.558594 "/>
<path style=" stroke:none;fill-rule:nonzero;fill:rgb(20.388794%,45.878601%,70.588684%);fill-opacity:1;" d="M 76.320312 39.363281 C 75.941406 39.019531 75.519531 38.746094 75.050781 38.539062 C 74.570312 38.324219 74.078125 38.148438 73.570312 38.011719 L 70.917969 37.34375 C 70.253906 37.171875 69.832031 36.957031 69.628906 36.703125 C 69.445312 36.488281 69.347656 36.238281 69.332031 35.957031 C 69.332031 35.710938 69.390625 35.484375 69.515625 35.273438 C 69.636719 35.0625 69.808594 34.902344 70.019531 34.785156 C 70.574219 34.476562 71.171875 34.335938 71.804688 34.363281 C 72.460938 34.359375 73.09375 34.480469 73.703125 34.726562 C 74.191406 34.925781 74.660156 35.171875 75.101562 35.457031 L 77.226562 33.328125 C 76.4375 32.683594 75.5625 32.199219 74.597656 31.878906 C 73.621094 31.5625 72.625 31.402344 71.601562 31.40625 C 70.886719 31.40625 70.1875 31.503906 69.503906 31.703125 C 68.839844 31.886719 68.234375 32.179688 67.675781 32.589844 C 67.144531 32.984375 66.71875 33.476562 66.402344 34.066406 C 66.066406 34.714844 65.90625 35.40625 65.921875 36.136719 C 65.910156 36.691406 66.011719 37.222656 66.226562 37.730469 C 66.425781 38.183594 66.699219 38.582031 67.054688 38.925781 C 67.402344 39.261719 67.792969 39.535156 68.226562 39.75 C 68.652344 39.960938 69.097656 40.121094 69.5625 40.222656 L 72.085938 40.867188 C 72.601562 40.988281 73.082031 41.191406 73.527344 41.484375 C 73.875 41.691406 74.058594 42 74.070312 42.410156 C 74.085938 42.644531 74.039062 42.867188 73.925781 43.074219 C 73.8125 43.28125 73.652344 43.441406 73.445312 43.554688 C 73.03125 43.785156 72.441406 43.902344 71.675781 43.902344 C 70.988281 43.886719 70.316406 43.769531 69.664062 43.554688 C 68.96875 43.335938 68.347656 42.992188 67.792969 42.519531 L 65.597656 44.730469 C 66.417969 45.476562 67.355469 46.023438 68.402344 46.375 C 69.441406 46.714844 70.507812 46.882812 71.597656 46.878906 C 72.347656 46.878906 73.085938 46.789062 73.816406 46.605469 C 74.496094 46.445312 75.128906 46.167969 75.714844 45.785156 C 76.265625 45.421875 76.707031 44.949219 77.039062 44.371094 C 77.386719 43.734375 77.550781 43.054688 77.535156 42.328125 C 77.550781 41.71875 77.441406 41.136719 77.203125 40.578125 C 76.992188 40.113281 76.695312 39.707031 76.320312 39.363281 "/>
<path style=" stroke:none;fill-rule:nonzero;fill:rgb(20.388794%,45.878601%,70.588684%);fill-opacity:1;" d="M 131.269531 39.363281 C 130.890625 39.023438 130.46875 38.746094 130.003906 38.539062 C 129.523438 38.324219 129.03125 38.148438 128.523438 38.011719 L 125.863281 37.34375 C 125.203125 37.171875 124.777344 36.957031 124.574219 36.703125 C 124.390625 36.488281 124.292969 36.238281 124.28125 35.957031 C 124.277344 35.710938 124.339844 35.484375 124.460938 35.273438 C 124.585938 35.0625 124.753906 34.902344 124.96875 34.785156 C 125.523438 34.476562 126.117188 34.335938 126.75 34.363281 C 127.410156 34.359375 128.042969 34.480469 128.652344 34.726562 C 129.140625 34.925781 129.605469 35.171875 130.050781 35.457031 L 132.171875 33.320312 C 131.382812 32.671875 130.507812 32.191406 129.542969 31.871094 C 128.570312 31.550781 127.570312 31.394531 126.550781 31.398438 C 125.835938 31.394531 125.136719 31.496094 124.449219 31.691406 C 123.789062 31.875 123.179688 32.171875 122.625 32.578125 C 122.089844 32.976562 121.664062 33.46875 121.347656 34.058594 C 121.007812 34.707031 120.84375 35.402344 120.863281 36.136719 C 120.851562 36.691406 120.953125 37.222656 121.167969 37.730469 C 121.363281 38.183594 121.640625 38.582031 121.996094 38.925781 C 122.34375 39.261719 122.734375 39.535156 123.167969 39.75 C 123.59375 39.960938 124.039062 40.121094 124.503906 40.222656 L 127.027344 40.867188 C 127.542969 40.988281 128.023438 41.191406 128.464844 41.484375 C 128.828125 41.742188 129.007812 42.050781 129.007812 42.410156 C 129.027344 42.644531 128.976562 42.867188 128.863281 43.074219 C 128.75 43.28125 128.589844 43.441406 128.386719 43.554688 C 127.96875 43.785156 127.378906 43.902344 126.613281 43.902344 C 125.925781 43.886719 125.253906 43.769531 124.601562 43.554688 C 123.910156 43.335938 123.285156 42.992188 122.730469 42.519531 L 120.535156 44.730469 C 121.359375 45.476562 122.292969 46.023438 123.339844 46.375 C 124.378906 46.714844 125.445312 46.882812 126.539062 46.878906 C 127.289062 46.878906 128.027344 46.789062 128.753906 46.605469 C 129.433594 46.445312 130.066406 46.167969 130.652344 45.785156 C 131.203125 45.421875 131.644531 44.949219 131.976562 44.371094 C 132.328125 43.738281 132.492188 43.054688 132.472656 42.328125 C 132.488281 41.71875 132.378906 41.136719 132.140625 40.578125 C 131.929688 40.109375 131.636719 39.703125 131.261719 39.359375 "/>
<g clip-path="url(#clip4)" clip-rule="nonzero">
<path style=" stroke:none;fill-rule:nonzero;fill:rgb(20.388794%,45.878601%,70.588684%);fill-opacity:1;" d="M 150.296875 42.71875 C 149.992188 43.1875 149.585938 43.542969 149.085938 43.785156 C 148.304688 44.183594 147.488281 44.269531 146.640625 44.042969 C 146.355469 43.96875 146.089844 43.84375 145.847656 43.667969 C 145.613281 43.503906 145.421875 43.300781 145.273438 43.054688 C 145.121094 42.78125 145.046875 42.492188 145.058594 42.179688 C 145.042969 41.75 145.164062 41.363281 145.417969 41.019531 C 145.664062 40.707031 145.960938 40.457031 146.3125 40.277344 C 146.679688 40.082031 147.066406 39.945312 147.472656 39.863281 C 147.863281 39.78125 148.257812 39.738281 148.65625 39.738281 C 148.929688 39.738281 149.199219 39.738281 149.46875 39.75 C 149.753906 39.757812 150.035156 39.789062 150.3125 39.839844 Z M 153.964844 43.996094 C 153.722656 43.695312 153.609375 43.347656 153.636719 42.957031 L 153.636719 36.855469 C 153.640625 36.128906 153.566406 35.410156 153.417969 34.695312 C 153.285156 34.050781 153.015625 33.464844 152.613281 32.941406 C 152.183594 32.402344 151.648438 32.007812 151.011719 31.757812 C 150.332031 31.472656 149.457031 31.332031 148.386719 31.335938 C 147.925781 31.339844 147.464844 31.378906 147.011719 31.449219 C 146.488281 31.53125 145.976562 31.644531 145.46875 31.796875 C 144.953125 31.949219 144.449219 32.132812 143.953125 32.34375 C 143.496094 32.542969 143.0625 32.785156 142.65625 33.074219 L 142.65625 33.09375 L 144.773438 35.226562 C 145.152344 35.058594 145.519531 34.90625 145.875 34.773438 C 146.5625 34.523438 147.273438 34.402344 148.003906 34.40625 C 148.753906 34.40625 149.351562 34.605469 149.800781 35 C 150.253906 35.394531 150.441406 35.949219 150.375 36.671875 L 150.324219 37.183594 C 150.082031 37.152344 149.835938 37.125 149.582031 37.109375 C 149.332031 37.089844 149.074219 37.082031 148.820312 37.082031 C 148.324219 37.085938 147.832031 37.113281 147.34375 37.171875 C 146.804688 37.238281 146.28125 37.351562 145.761719 37.507812 C 145.234375 37.664062 144.730469 37.871094 144.246094 38.136719 C 143.765625 38.398438 143.335938 38.730469 142.960938 39.128906 C 142.574219 39.539062 142.277344 40.003906 142.066406 40.53125 C 141.835938 41.136719 141.726562 41.765625 141.738281 42.417969 C 141.722656 43.101562 141.863281 43.746094 142.15625 44.359375 C 142.425781 44.90625 142.800781 45.371094 143.277344 45.75 C 143.773438 46.132812 144.320312 46.410156 144.921875 46.582031 C 145.570312 46.777344 146.234375 46.871094 146.914062 46.867188 C 147.75 46.890625 148.554688 46.75 149.335938 46.441406 C 149.941406 46.195312 150.492188 45.855469 150.988281 45.425781 C 151.238281 45.835938 151.566406 46.171875 151.96875 46.429688 C 152.402344 46.710938 152.871094 46.882812 153.382812 46.945312 L 154.863281 44.503906 C 154.511719 44.433594 154.210938 44.265625 153.96875 44 "/>
</g>
<path style=" stroke:none;fill-rule:nonzero;fill:rgb(19.999695%,46.269226%,70.979309%);fill-opacity:1;" d="M 66.832031 54.292969 C 66.820312 54.347656 66.816406 54.398438 66.8125 54.453125 C 66.804688 54.515625 66.824219 54.570312 66.871094 54.613281 C 66.921875 54.648438 66.980469 54.664062 67.042969 54.660156 C 67.214844 54.644531 67.378906 54.597656 67.53125 54.519531 L 67.636719 55.121094 C 67.386719 55.261719 67.121094 55.328125 66.835938 55.332031 C 66.625 55.34375 66.433594 55.28125 66.261719 55.148438 C 66.101562 55 66.03125 54.816406 66.046875 54.601562 C 66.046875 54.519531 66.054688 54.4375 66.066406 54.359375 L 66.371094 52.847656 L 65.941406 52.847656 L 66.046875 52.289062 L 66.484375 52.289062 L 66.652344 51.429688 L 67.40625 51.429688 L 67.226562 52.289062 L 68.117188 52.289062 L 68.019531 52.847656 L 67.113281 52.847656 Z M 66.832031 54.292969 "/>
<path style=" stroke:none;fill-rule:nonzero;fill:rgb(19.999695%,46.269226%,70.979309%);fill-opacity:1;" d="M 71.1875 52.390625 C 71.398438 52.589844 71.496094 52.832031 71.484375 53.125 C 71.484375 53.230469 71.472656 53.339844 71.449219 53.445312 L 71.089844 55.289062 L 70.328125 55.289062 L 70.671875 53.554688 C 70.679688 53.496094 70.6875 53.433594 70.6875 53.375 C 70.695312 53.210938 70.640625 53.070312 70.523438 52.957031 C 70.394531 52.84375 70.242188 52.792969 70.070312 52.804688 C 69.839844 52.804688 69.640625 52.882812 69.476562 53.042969 C 69.296875 53.203125 69.1875 53.40625 69.144531 53.644531 L 68.8125 55.300781 L 68.050781 55.300781 L 68.90625 50.953125 L 69.667969 50.953125 L 69.347656 52.613281 C 69.460938 52.480469 69.589844 52.371094 69.742188 52.289062 C 69.894531 52.207031 70.054688 52.15625 70.226562 52.136719 C 70.398438 52.113281 70.566406 52.128906 70.730469 52.171875 C 70.898438 52.21875 71.050781 52.292969 71.1875 52.398438 Z M 71.1875 52.390625 "/>
<path style=" stroke:none;fill-rule:nonzero;fill:rgb(19.999695%,46.269226%,70.979309%);fill-opacity:1;" d="M 74.59375 52.503906 C 74.863281 52.78125 74.988281 53.109375 74.96875 53.496094 C 74.96875 53.664062 74.949219 53.832031 74.910156 53.996094 L 72.546875 53.996094 C 72.554688 54.207031 72.640625 54.386719 72.796875 54.527344 C 72.96875 54.667969 73.167969 54.734375 73.390625 54.722656 C 73.695312 54.722656 73.964844 54.628906 74.207031 54.441406 L 74.570312 54.902344 C 74.226562 55.199219 73.828125 55.34375 73.375 55.332031 C 73.085938 55.335938 72.808594 55.273438 72.546875 55.148438 C 72.316406 55.035156 72.136719 54.871094 72.003906 54.648438 C 71.871094 54.414062 71.804688 54.164062 71.808594 53.894531 C 71.804688 53.574219 71.882812 53.273438 72.039062 52.996094 C 72.191406 52.726562 72.40625 52.515625 72.675781 52.363281 C 72.957031 52.203125 73.257812 52.125 73.582031 52.132812 C 73.96875 52.117188 74.308594 52.238281 74.59375 52.503906 Z M 74.105469 52.9375 C 73.960938 52.792969 73.785156 52.726562 73.582031 52.742188 C 73.359375 52.738281 73.15625 52.808594 72.980469 52.945312 C 72.796875 53.089844 72.671875 53.273438 72.605469 53.496094 L 74.277344 53.496094 C 74.300781 53.285156 74.242188 53.097656 74.105469 52.9375 Z M 74.105469 52.9375 "/>
<path style=" stroke:none;fill-rule:nonzero;fill:rgb(19.999695%,46.269226%,70.979309%);fill-opacity:1;" d="M 77.015625 55.15625 C 76.820312 55.035156 76.667969 54.871094 76.566406 54.660156 C 76.457031 54.429688 76.402344 54.1875 76.410156 53.929688 C 76.402344 53.605469 76.476562 53.300781 76.628906 53.015625 C 76.773438 52.742188 76.976562 52.527344 77.234375 52.367188 C 77.5 52.207031 77.78125 52.128906 78.089844 52.132812 C 78.328125 52.125 78.546875 52.179688 78.753906 52.296875 C 78.941406 52.414062 79.070312 52.574219 79.144531 52.78125 L 79.519531 50.953125 L 80.269531 50.953125 L 79.410156 55.300781 L 78.65625 55.300781 L 78.746094 54.875 C 78.457031 55.183594 78.101562 55.339844 77.679688 55.335938 C 77.441406 55.339844 77.21875 55.277344 77.015625 55.15625 Z M 78.464844 54.558594 C 78.621094 54.460938 78.742188 54.328125 78.828125 54.164062 C 78.917969 53.992188 78.964844 53.808594 78.960938 53.613281 C 78.972656 53.386719 78.902344 53.191406 78.75 53.019531 C 78.597656 52.859375 78.414062 52.785156 78.191406 52.792969 C 78.007812 52.792969 77.835938 52.84375 77.679688 52.941406 C 77.523438 53.042969 77.402344 53.175781 77.316406 53.339844 C 77.226562 53.511719 77.179688 53.691406 77.179688 53.886719 C 77.167969 54.113281 77.242188 54.3125 77.394531 54.476562 C 77.546875 54.636719 77.734375 54.710938 77.953125 54.699219 C 78.136719 54.703125 78.308594 54.65625 78.464844 54.558594 Z M 78.464844 54.558594 "/>
<path style=" stroke:none;fill-rule:nonzero;fill:rgb(19.999695%,46.269226%,70.979309%);fill-opacity:1;" d="M 81.578125 52.164062 L 80.957031 55.296875 L 80.207031 55.296875 L 80.824219 52.164062 Z M 81.714844 50.917969 C 81.785156 50.996094 81.816406 51.085938 81.8125 51.191406 C 81.8125 51.335938 81.761719 51.460938 81.660156 51.5625 C 81.558594 51.667969 81.433594 51.71875 81.289062 51.722656 C 81.1875 51.726562 81.101562 51.691406 81.03125 51.617188 C 80.964844 51.542969 80.929688 51.449219 80.933594 51.347656 C 80.929688 51.199219 80.984375 51.070312 81.089844 50.96875 C 81.191406 50.867188 81.3125 50.816406 81.453125 50.8125 C 81.554688 50.808594 81.644531 50.84375 81.714844 50.917969 Z M 81.714844 50.917969 "/>
<g clip-path="url(#clip5)" clip-rule="nonzero">
<path style=" stroke:none;fill-rule:nonzero;fill:rgb(19.999695%,46.269226%,70.979309%);fill-opacity:1;" d="M 81.511719 56.027344 L 81.847656 55.507812 C 82.125 55.726562 82.441406 55.832031 82.792969 55.824219 C 83.046875 55.835938 83.285156 55.777344 83.503906 55.640625 C 83.691406 55.515625 83.808594 55.339844 83.851562 55.113281 L 83.953125 54.722656 C 83.820312 54.855469 83.667969 54.960938 83.496094 55.03125 C 83.324219 55.105469 83.140625 55.140625 82.953125 55.140625 C 82.730469 55.144531 82.523438 55.089844 82.332031 54.972656 C 82.148438 54.863281 82.007812 54.707031 81.910156 54.511719 C 81.804688 54.296875 81.753906 54.070312 81.757812 53.832031 C 81.753906 53.527344 81.824219 53.238281 81.96875 52.96875 C 82.105469 52.710938 82.292969 52.507812 82.539062 52.355469 C 82.785156 52.203125 83.054688 52.128906 83.34375 52.132812 C 83.5625 52.125 83.769531 52.175781 83.964844 52.285156 C 84.136719 52.390625 84.257812 52.535156 84.328125 52.726562 L 84.449219 52.164062 L 85.207031 52.164062 L 84.589844 55.179688 C 84.519531 55.574219 84.328125 55.894531 84.003906 56.132812 C 83.636719 56.371094 83.238281 56.484375 82.800781 56.460938 C 82.324219 56.457031 81.894531 56.3125 81.511719 56.027344 Z M 83.703125 54.382812 C 84.015625 54.191406 84.167969 53.910156 84.167969 53.542969 C 84.175781 53.339844 84.113281 53.160156 83.976562 53.007812 C 83.835938 52.863281 83.664062 52.796875 83.460938 52.804688 C 83.296875 52.804688 83.140625 52.851562 83 52.941406 C 82.855469 53.03125 82.742188 53.152344 82.660156 53.304688 C 82.574219 53.460938 82.535156 53.625 82.535156 53.800781 C 82.527344 54.003906 82.589844 54.179688 82.726562 54.324219 C 82.871094 54.464844 83.039062 54.53125 83.238281 54.523438 C 83.410156 54.519531 83.5625 54.472656 83.703125 54.378906 Z M 83.703125 54.382812 "/>
</g>
<path style=" stroke:none;fill-rule:nonzero;fill:rgb(19.999695%,46.269226%,70.979309%);fill-opacity:1;" d="M 86.683594 52.164062 L 86.058594 55.296875 L 85.308594 55.296875 L 85.925781 52.164062 Z M 86.816406 50.917969 C 86.886719 50.996094 86.917969 51.085938 86.914062 51.191406 C 86.914062 51.335938 86.863281 51.460938 86.761719 51.5625 C 86.660156 51.667969 86.535156 51.71875 86.390625 51.722656 C 86.292969 51.726562 86.207031 51.691406 86.136719 51.617188 C 86.066406 51.542969 86.03125 51.449219 86.035156 51.347656 C 86.035156 51.199219 86.085938 51.070312 86.191406 50.96875 C 86.292969 50.867188 86.414062 50.816406 86.554688 50.8125 C 86.660156 50.808594 86.75 50.84375 86.820312 50.917969 Z M 86.816406 50.917969 "/>
<path style=" stroke:none;fill-rule:nonzero;fill:rgb(19.999695%,46.269226%,70.979309%);fill-opacity:1;" d="M 87.90625 54.292969 C 87.898438 54.347656 87.890625 54.398438 87.890625 54.453125 C 87.882812 54.515625 87.902344 54.570312 87.945312 54.613281 C 88 54.648438 88.054688 54.664062 88.117188 54.660156 C 88.289062 54.644531 88.453125 54.597656 88.605469 54.519531 L 88.710938 55.121094 C 88.464844 55.261719 88.199219 55.328125 87.914062 55.332031 C 87.699219 55.34375 87.507812 55.28125 87.339844 55.148438 C 87.179688 55 87.105469 54.816406 87.121094 54.601562 C 87.121094 54.519531 87.128906 54.4375 87.144531 54.359375 L 87.449219 52.847656 L 87.003906 52.847656 L 87.109375 52.289062 L 87.546875 52.289062 L 87.714844 51.429688 L 88.472656 51.429688 L 88.289062 52.289062 L 89.179688 52.289062 L 89.082031 52.847656 L 88.175781 52.847656 Z M 87.90625 54.292969 "/>
<path style=" stroke:none;fill-rule:nonzero;fill:rgb(19.999695%,46.269226%,70.979309%);fill-opacity:1;" d="M 89.6875 55.15625 C 89.488281 55.035156 89.339844 54.871094 89.238281 54.660156 C 89.125 54.429688 89.070312 54.1875 89.078125 53.929688 C 89.074219 53.605469 89.144531 53.300781 89.296875 53.015625 C 89.441406 52.742188 89.644531 52.527344 89.90625 52.367188 C 90.167969 52.207031 90.453125 52.128906 90.761719 52.132812 C 90.996094 52.125 91.21875 52.179688 91.421875 52.296875 C 91.609375 52.414062 91.738281 52.574219 91.816406 52.78125 L 91.945312 52.160156 L 92.699219 52.160156 L 92.074219 55.296875 L 91.320312 55.296875 L 91.40625 54.867188 C 91.121094 55.179688 90.765625 55.332031 90.339844 55.332031 C 90.105469 55.335938 89.886719 55.277344 89.6875 55.15625 Z M 91.132812 54.558594 C 91.289062 54.460938 91.410156 54.328125 91.496094 54.164062 C 91.589844 53.992188 91.632812 53.808594 91.628906 53.613281 C 91.640625 53.386719 91.570312 53.191406 91.421875 53.019531 C 91.269531 52.859375 91.082031 52.785156 90.859375 52.792969 C 90.675781 52.792969 90.503906 52.84375 90.347656 52.941406 C 90.195312 53.042969 90.074219 53.175781 89.988281 53.339844 C 89.894531 53.511719 89.847656 53.691406 89.847656 53.886719 C 89.839844 54.113281 89.910156 54.3125 90.0625 54.476562 C 90.214844 54.636719 90.402344 54.710938 90.625 54.699219 C 90.808594 54.703125 90.976562 54.65625 91.132812 54.558594 Z M 91.132812 54.558594 "/>
<path style=" stroke:none;fill-rule:nonzero;fill:rgb(19.999695%,46.269226%,70.979309%);fill-opacity:1;" d="M 94.496094 50.949219 L 93.632812 55.296875 L 92.875 55.296875 L 93.738281 50.949219 Z M 94.496094 50.949219 "/>
<path style=" stroke:none;fill-rule:nonzero;fill:rgb(19.999695%,46.269226%,70.979309%);fill-opacity:1;" d="M 98.511719 52.503906 C 98.78125 52.78125 98.90625 53.109375 98.886719 53.496094 C 98.886719 53.664062 98.867188 53.832031 98.828125 53.996094 L 96.464844 53.996094 C 96.472656 54.207031 96.554688 54.386719 96.714844 54.527344 C 96.886719 54.667969 97.085938 54.734375 97.308594 54.722656 C 97.609375 54.722656 97.882812 54.628906 98.125 54.441406 L 98.484375 54.902344 C 98.140625 55.199219 97.746094 55.34375 97.292969 55.332031 C 97.003906 55.335938 96.726562 55.273438 96.464844 55.148438 C 96.234375 55.035156 96.054688 54.867188 95.921875 54.648438 C 95.785156 54.414062 95.722656 54.164062 95.726562 53.894531 C 95.722656 53.574219 95.796875 53.273438 95.957031 52.996094 C 96.109375 52.726562 96.324219 52.515625 96.59375 52.363281 C 96.871094 52.203125 97.175781 52.125 97.496094 52.132812 C 97.886719 52.117188 98.222656 52.238281 98.511719 52.503906 Z M 98.023438 52.9375 C 97.878906 52.792969 97.703125 52.726562 97.5 52.742188 C 97.277344 52.738281 97.074219 52.808594 96.898438 52.945312 C 96.714844 53.089844 96.589844 53.273438 96.519531 53.496094 L 98.191406 53.496094 C 98.214844 53.285156 98.160156 53.097656 98.023438 52.9375 Z M 98.023438 52.9375 "/>
<path style=" stroke:none;fill-rule:nonzero;fill:rgb(19.999695%,46.269226%,70.979309%);fill-opacity:1;" d="M 100.039062 52.164062 L 100.46875 53.183594 L 101.355469 52.164062 L 102.203125 52.164062 L 100.894531 53.691406 L 101.636719 55.296875 L 100.761719 55.296875 L 100.308594 54.199219 L 99.324219 55.296875 L 98.464844 55.296875 L 99.878906 53.691406 L 99.171875 52.164062 Z M 100.039062 52.164062 "/>
<g clip-path="url(#clip6)" clip-rule="nonzero">
<path style=" stroke:none;fill-rule:nonzero;fill:rgb(19.999695%,46.269226%,70.979309%);fill-opacity:1;" d="M 105.046875 52.308594 C 105.242188 52.429688 105.390625 52.59375 105.496094 52.800781 C 105.605469 53.03125 105.660156 53.277344 105.65625 53.53125 C 105.660156 53.855469 105.585938 54.160156 105.433594 54.445312 C 105.289062 54.71875 105.089844 54.933594 104.832031 55.097656 C 104.570312 55.257812 104.285156 55.335938 103.976562 55.332031 C 103.738281 55.339844 103.519531 55.285156 103.3125 55.167969 C 103.125 55.046875 102.996094 54.882812 102.917969 54.675781 L 102.554688 56.433594 L 101.804688 56.433594 L 102.648438 52.164062 L 103.40625 52.164062 L 103.320312 52.589844 C 103.457031 52.445312 103.617188 52.335938 103.800781 52.253906 C 103.984375 52.171875 104.179688 52.128906 104.386719 52.128906 C 104.621094 52.125 104.84375 52.1875 105.046875 52.308594 Z M 103.597656 52.902344 C 103.441406 53 103.320312 53.132812 103.234375 53.296875 C 103.144531 53.46875 103.097656 53.652344 103.101562 53.84375 C 103.089844 54.070312 103.160156 54.269531 103.3125 54.4375 C 103.460938 54.597656 103.648438 54.671875 103.863281 54.660156 C 104.050781 54.660156 104.222656 54.613281 104.382812 54.515625 C 104.539062 54.414062 104.664062 54.28125 104.753906 54.117188 C 104.847656 53.945312 104.890625 53.765625 104.890625 53.570312 C 104.902344 53.339844 104.828125 53.144531 104.679688 52.972656 C 104.523438 52.8125 104.335938 52.738281 104.113281 52.75 C 103.929688 52.75 103.761719 52.800781 103.605469 52.902344 Z M 103.597656 52.902344 "/>
</g>
<path style=" stroke:none;fill-rule:nonzero;fill:rgb(19.999695%,46.269226%,70.979309%);fill-opacity:1;" d="M 108.65625 52.503906 C 108.925781 52.78125 109.050781 53.109375 109.03125 53.496094 C 109.03125 53.664062 109.011719 53.832031 108.976562 53.996094 L 106.609375 53.996094 C 106.621094 54.207031 106.703125 54.386719 106.859375 54.527344 C 107.035156 54.671875 107.238281 54.734375 107.464844 54.722656 C 107.765625 54.722656 108.039062 54.628906 108.277344 54.441406 L 108.640625 54.902344 C 108.296875 55.199219 107.898438 55.34375 107.445312 55.332031 C 107.15625 55.335938 106.878906 55.273438 106.617188 55.148438 C 106.390625 55.035156 106.207031 54.867188 106.074219 54.648438 C 105.941406 54.414062 105.875 54.164062 105.878906 53.894531 C 105.875 53.574219 105.953125 53.273438 106.109375 52.996094 C 106.265625 52.726562 106.476562 52.515625 106.746094 52.363281 C 107.027344 52.203125 107.328125 52.125 107.652344 52.132812 C 108.035156 52.117188 108.371094 52.242188 108.65625 52.503906 Z M 108.171875 52.9375 C 108.027344 52.792969 107.851562 52.726562 107.648438 52.742188 C 107.421875 52.738281 107.222656 52.808594 107.042969 52.945312 C 106.863281 53.089844 106.738281 53.273438 106.667969 53.496094 L 108.339844 53.496094 C 108.363281 53.285156 108.308594 53.097656 108.171875 52.9375 Z M 108.171875 52.9375 "/>
<path style=" stroke:none;fill-rule:nonzero;fill:rgb(19.999695%,46.269226%,70.979309%);fill-opacity:1;" d="M 110.964844 52.289062 C 111.171875 52.183594 111.386719 52.132812 111.613281 52.132812 L 111.519531 52.863281 L 111.421875 52.863281 C 111.144531 52.859375 110.898438 52.941406 110.683594 53.113281 C 110.46875 53.277344 110.332031 53.492188 110.261719 53.753906 L 109.953125 55.292969 L 109.195312 55.292969 L 109.816406 52.164062 L 110.582031 52.164062 L 110.46875 52.726562 C 110.601562 52.539062 110.765625 52.394531 110.964844 52.289062 Z M 110.964844 52.289062 "/>
<path style=" stroke:none;fill-rule:nonzero;fill:rgb(19.999695%,46.269226%,70.979309%);fill-opacity:1;" d="M 112.769531 52.164062 L 112.144531 55.296875 L 111.390625 55.296875 L 112.007812 52.164062 Z M 112.902344 50.917969 C 112.972656 50.996094 113.003906 51.085938 113 51.191406 C 113 51.335938 112.945312 51.460938 112.84375 51.5625 C 112.742188 51.667969 112.621094 51.71875 112.476562 51.722656 C 112.375 51.726562 112.289062 51.691406 112.21875 51.617188 C 112.148438 51.542969 112.117188 51.449219 112.121094 51.347656 C 112.117188 51.199219 112.171875 51.070312 112.277344 50.96875 C 112.375 50.867188 112.496094 50.816406 112.640625 50.8125 C 112.738281 50.8125 112.824219 50.847656 112.894531 50.917969 Z M 112.902344 50.917969 "/>
<path style=" stroke:none;fill-rule:nonzero;fill:rgb(19.999695%,46.269226%,70.979309%);fill-opacity:1;" d="M 115.742188 52.503906 C 116.011719 52.78125 116.136719 53.109375 116.117188 53.496094 C 116.117188 53.664062 116.097656 53.832031 116.058594 53.996094 L 113.691406 53.996094 C 113.703125 54.207031 113.785156 54.386719 113.941406 54.527344 C 114.117188 54.667969 114.316406 54.734375 114.539062 54.722656 C 114.84375 54.722656 115.113281 54.628906 115.355469 54.441406 L 115.714844 54.902344 C 115.371094 55.199219 114.976562 55.34375 114.523438 55.332031 C 114.234375 55.335938 113.957031 55.273438 113.695312 55.148438 C 113.464844 55.035156 113.285156 54.867188 113.152344 54.648438 C 113.015625 54.414062 112.949219 54.164062 112.957031 53.894531 C 112.953125 53.574219 113.027344 53.273438 113.1875 52.996094 C 113.339844 52.726562 113.550781 52.515625 113.820312 52.363281 C 114.101562 52.203125 114.40625 52.125 114.726562 52.132812 C 115.117188 52.117188 115.453125 52.238281 115.742188 52.503906 Z M 115.25 52.9375 C 115.105469 52.792969 114.929688 52.726562 114.726562 52.742188 C 114.5 52.738281 114.300781 52.808594 114.121094 52.945312 C 113.941406 53.089844 113.8125 53.273438 113.746094 53.496094 L 115.429688 53.496094 C 115.449219 53.28125 115.390625 53.097656 115.25 52.9375 Z M 115.25 52.9375 "/>
<path style=" stroke:none;fill-rule:nonzero;fill:rgb(19.999695%,46.269226%,70.979309%);fill-opacity:1;" d="M 119.414062 52.390625 C 119.625 52.589844 119.722656 52.832031 119.710938 53.125 C 119.710938 53.230469 119.699219 53.339844 119.675781 53.445312 L 119.316406 55.289062 L 118.554688 55.289062 L 118.898438 53.554688 C 118.90625 53.496094 118.914062 53.433594 118.914062 53.375 C 118.921875 53.210938 118.867188 53.070312 118.75 52.957031 C 118.621094 52.84375 118.46875 52.792969 118.296875 52.804688 C 118.070312 52.804688 117.875 52.878906 117.710938 53.035156 C 117.535156 53.195312 117.421875 53.398438 117.382812 53.636719 L 117.042969 55.292969 L 116.289062 55.292969 L 116.898438 52.160156 L 117.667969 52.160156 L 117.582031 52.605469 C 117.835938 52.261719 118.171875 52.101562 118.59375 52.117188 C 118.902344 52.101562 119.175781 52.195312 119.414062 52.390625 Z M 119.414062 52.390625 "/>
<path style=" stroke:none;fill-rule:nonzero;fill:rgb(19.999695%,46.269226%,70.979309%);fill-opacity:1;" d="M 120.703125 55.144531 C 120.488281 55.027344 120.320312 54.859375 120.203125 54.644531 C 120.078125 54.410156 120.019531 54.160156 120.023438 53.894531 C 120.015625 53.570312 120.09375 53.265625 120.246094 52.984375 C 120.398438 52.714844 120.605469 52.507812 120.875 52.359375 C 121.152344 52.207031 121.453125 52.132812 121.769531 52.136719 C 122.027344 52.128906 122.277344 52.179688 122.515625 52.285156 C 122.726562 52.378906 122.898438 52.523438 123.035156 52.710938 L 122.527344 53.152344 C 122.324219 52.90625 122.0625 52.792969 121.746094 52.808594 C 121.371094 52.800781 121.09375 52.96875 120.917969 53.304688 C 120.828125 53.472656 120.785156 53.652344 120.792969 53.84375 C 120.78125 54.070312 120.851562 54.269531 121 54.441406 C 121.152344 54.601562 121.335938 54.679688 121.554688 54.667969 C 121.90625 54.6875 122.195312 54.566406 122.429688 54.304688 L 122.867188 54.695312 C 122.707031 54.902344 122.507812 55.058594 122.269531 55.164062 C 122.007812 55.277344 121.738281 55.332031 121.457031 55.328125 C 121.1875 55.335938 120.9375 55.273438 120.703125 55.144531 Z M 120.703125 55.144531 "/>
<path style=" stroke:none;fill-rule:nonzero;fill:rgb(19.999695%,46.269226%,70.979309%);fill-opacity:1;" d="M 125.929688 52.503906 C 126.199219 52.78125 126.324219 53.109375 126.304688 53.496094 C 126.304688 53.664062 126.285156 53.832031 126.25 53.996094 L 123.886719 53.996094 C 123.898438 54.207031 123.980469 54.386719 124.136719 54.527344 C 124.3125 54.667969 124.507812 54.734375 124.730469 54.722656 C 125.035156 54.722656 125.308594 54.628906 125.546875 54.441406 L 125.910156 54.902344 C 125.566406 55.199219 125.167969 55.34375 124.714844 55.332031 C 124.425781 55.335938 124.152344 55.273438 123.890625 55.148438 C 123.660156 55.035156 123.476562 54.867188 123.347656 54.648438 C 123.210938 54.414062 123.144531 54.164062 123.148438 53.894531 C 123.144531 53.574219 123.222656 53.273438 123.378906 52.996094 C 123.535156 52.726562 123.746094 52.515625 124.015625 52.363281 C 124.296875 52.203125 124.597656 52.125 124.921875 52.132812 C 125.308594 52.117188 125.644531 52.242188 125.929688 52.503906 Z M 125.445312 52.9375 C 125.300781 52.792969 125.125 52.726562 124.921875 52.742188 C 124.695312 52.738281 124.496094 52.808594 124.316406 52.945312 C 124.136719 53.089844 124.011719 53.273438 123.941406 53.496094 L 125.613281 53.496094 C 125.636719 53.285156 125.582031 53.101562 125.449219 52.9375 Z M 125.445312 52.9375 "/>
<path style=" stroke:none;fill-rule:nonzero;fill:rgb(19.999695%,46.269226%,70.979309%);fill-opacity:1;" d="M 128.433594 55.144531 C 128.21875 55.027344 128.050781 54.859375 127.933594 54.644531 C 127.808594 54.410156 127.746094 54.160156 127.75 53.894531 C 127.746094 53.570312 127.820312 53.265625 127.976562 52.984375 C 128.128906 52.714844 128.335938 52.507812 128.605469 52.359375 C 128.882812 52.207031 129.179688 52.132812 129.5 52.136719 C 129.757812 52.128906 130.007812 52.179688 130.246094 52.285156 C 130.453125 52.382812 130.625 52.523438 130.757812 52.710938 L 130.25 53.152344 C 130.046875 52.90625 129.785156 52.789062 129.46875 52.804688 C 129.09375 52.800781 128.816406 52.964844 128.640625 53.300781 C 128.550781 53.472656 128.507812 53.652344 128.511719 53.839844 C 128.503906 54.070312 128.574219 54.269531 128.722656 54.4375 C 128.875 54.601562 129.058594 54.675781 129.277344 54.667969 C 129.625 54.6875 129.917969 54.566406 130.148438 54.300781 L 130.589844 54.695312 C 130.425781 54.902344 130.226562 55.058594 129.992188 55.164062 C 129.730469 55.277344 129.460938 55.332031 129.179688 55.328125 C 128.914062 55.332031 128.667969 55.273438 128.433594 55.144531 Z M 128.433594 55.144531 "/>
<path style=" stroke:none;fill-rule:nonzero;fill:rgb(19.999695%,46.269226%,70.979309%);fill-opacity:1;" d="M 133.464844 52.308594 C 133.691406 52.425781 133.867188 52.59375 133.992188 52.816406 C 134.117188 53.050781 134.175781 53.300781 134.171875 53.566406 C 134.179688 53.894531 134.101562 54.199219 133.9375 54.480469 C 133.777344 54.75 133.5625 54.957031 133.289062 55.101562 C 133 55.257812 132.691406 55.332031 132.359375 55.324219 C 132.082031 55.332031 131.820312 55.269531 131.570312 55.144531 C 131.347656 55.027344 131.171875 54.855469 131.046875 54.632812 C 130.917969 54.398438 130.859375 54.148438 130.867188 53.882812 C 130.859375 53.554688 130.9375 53.25 131.097656 52.96875 C 131.253906 52.699219 131.472656 52.492188 131.746094 52.351562 C 132.035156 52.195312 132.347656 52.121094 132.675781 52.128906 C 132.953125 52.121094 133.21875 52.183594 133.464844 52.308594 Z M 132.113281 52.917969 C 131.964844 53.003906 131.847656 53.128906 131.761719 53.28125 C 131.671875 53.453125 131.628906 53.636719 131.636719 53.832031 C 131.625 54.066406 131.695312 54.269531 131.851562 54.441406 C 132.003906 54.609375 132.195312 54.683594 132.421875 54.675781 C 132.601562 54.675781 132.769531 54.632812 132.921875 54.539062 C 133.074219 54.445312 133.1875 54.320312 133.273438 54.164062 C 133.359375 53.992188 133.402344 53.808594 133.398438 53.617188 C 133.410156 53.386719 133.335938 53.179688 133.1875 53.007812 C 133.03125 52.839844 132.84375 52.761719 132.617188 52.773438 C 132.4375 52.773438 132.269531 52.824219 132.113281 52.925781 Z M 132.113281 52.917969 "/>
<path style=" stroke:none;fill-rule:nonzero;fill:rgb(19.999695%,46.269226%,70.979309%);fill-opacity:1;" d="M 139.757812 52.390625 C 139.976562 52.589844 140.078125 52.839844 140.0625 53.132812 C 140.0625 53.242188 140.050781 53.347656 140.027344 53.449219 L 139.664062 55.296875 L 138.902344 55.296875 L 139.246094 53.5625 C 139.257812 53.5 139.261719 53.441406 139.261719 53.378906 C 139.273438 53.214844 139.21875 53.078125 139.101562 52.960938 C 138.96875 52.851562 138.816406 52.800781 138.644531 52.8125 C 138.421875 52.808594 138.226562 52.886719 138.0625 53.042969 C 137.886719 53.207031 137.773438 53.40625 137.730469 53.644531 L 137.398438 55.300781 L 136.636719 55.300781 L 136.976562 53.566406 C 136.988281 53.507812 136.996094 53.445312 136.996094 53.382812 C 137.003906 53.21875 136.949219 53.082031 136.832031 52.96875 C 136.703125 52.855469 136.550781 52.804688 136.378906 52.816406 C 136.152344 52.8125 135.957031 52.890625 135.792969 53.042969 C 135.617188 53.207031 135.507812 53.410156 135.464844 53.648438 L 135.125 55.304688 L 134.367188 55.304688 L 134.980469 52.171875 L 135.75 52.171875 L 135.660156 52.617188 C 135.914062 52.273438 136.253906 52.113281 136.675781 52.128906 C 136.929688 52.121094 137.164062 52.179688 137.382812 52.3125 C 137.574219 52.433594 137.699219 52.605469 137.761719 52.824219 C 137.878906 52.609375 138.042969 52.4375 138.257812 52.3125 C 138.46875 52.1875 138.695312 52.125 138.941406 52.128906 C 139.25 52.109375 139.519531 52.199219 139.757812 52.390625 Z M 139.757812 52.390625 "/>
<g clip-path="url(#clip7)" clip-rule="nonzero">
<path style=" stroke:none;fill-rule:nonzero;fill:rgb(19.999695%,46.269226%,70.979309%);fill-opacity:1;" d="M 143.378906 52.308594 C 143.578125 52.429688 143.726562 52.59375 143.828125 52.800781 C 143.941406 53.03125 143.996094 53.277344 143.988281 53.53125 C 143.992188 53.855469 143.917969 54.160156 143.769531 54.445312 C 143.625 54.71875 143.421875 54.933594 143.164062 55.097656 C 142.902344 55.257812 142.617188 55.335938 142.3125 55.332031 C 142.074219 55.339844 141.855469 55.285156 141.648438 55.167969 C 141.460938 55.046875 141.328125 54.886719 141.25 54.675781 L 140.890625 56.433594 L 140.144531 56.433594 L 140.988281 52.164062 L 141.746094 52.164062 L 141.660156 52.589844 C 141.796875 52.445312 141.957031 52.335938 142.140625 52.253906 C 142.324219 52.171875 142.519531 52.132812 142.71875 52.136719 C 142.957031 52.128906 143.175781 52.1875 143.378906 52.308594 Z M 141.933594 52.902344 C 141.777344 53 141.65625 53.132812 141.570312 53.296875 C 141.480469 53.46875 141.433594 53.652344 141.4375 53.84375 C 141.425781 54.070312 141.496094 54.269531 141.644531 54.4375 C 141.796875 54.59375 141.980469 54.667969 142.199219 54.660156 C 142.382812 54.660156 142.554688 54.613281 142.714844 54.515625 C 142.875 54.414062 142.996094 54.28125 143.085938 54.117188 C 143.179688 53.945312 143.226562 53.765625 143.226562 53.570312 C 143.234375 53.339844 143.164062 53.140625 143.011719 52.972656 C 142.855469 52.8125 142.671875 52.738281 142.449219 52.75 C 142.265625 52.75 142.09375 52.800781 141.9375 52.902344 Z M 141.933594 52.902344 "/>
</g>
<path style=" stroke:none;fill-rule:nonzero;fill:rgb(19.999695%,46.269226%,70.979309%);fill-opacity:1;" d="M 144.796875 55.15625 C 144.597656 55.035156 144.449219 54.871094 144.347656 54.660156 C 144.234375 54.429688 144.179688 54.1875 144.1875 53.929688 C 144.183594 53.605469 144.257812 53.300781 144.410156 53.015625 C 144.550781 52.742188 144.753906 52.527344 145.015625 52.367188 C 145.277344 52.207031 145.5625 52.128906 145.871094 52.132812 C 146.105469 52.121094 146.328125 52.179688 146.53125 52.296875 C 146.71875 52.414062 146.847656 52.574219 146.925781 52.78125 L 147.050781 52.160156 L 147.808594 52.160156 L 147.1875 55.292969 L 146.433594 55.292969 L 146.523438 54.867188 C 146.234375 55.175781 145.878906 55.332031 145.457031 55.328125 C 145.222656 55.335938 145 55.277344 144.796875 55.15625 Z M 146.246094 54.558594 C 146.402344 54.457031 146.519531 54.328125 146.605469 54.164062 C 146.699219 53.992188 146.742188 53.808594 146.742188 53.613281 C 146.75 53.386719 146.679688 53.191406 146.53125 53.019531 C 146.378906 52.859375 146.191406 52.785156 145.972656 52.792969 C 145.785156 52.792969 145.617188 52.84375 145.460938 52.941406 C 145.304688 53.042969 145.183594 53.175781 145.097656 53.339844 C 145.003906 53.507812 144.957031 53.691406 144.960938 53.886719 C 144.949219 54.113281 145.019531 54.308594 145.171875 54.476562 C 145.328125 54.636719 145.515625 54.710938 145.734375 54.699219 C 145.917969 54.703125 146.085938 54.65625 146.242188 54.558594 Z M 146.246094 54.558594 "/>
<path style=" stroke:none;fill-rule:nonzero;fill:rgb(19.999695%,46.269226%,70.979309%);fill-opacity:1;" d="M 151.097656 52.390625 C 151.3125 52.589844 151.410156 52.832031 151.398438 53.125 C 151.398438 53.230469 151.386719 53.339844 151.367188 53.445312 L 151.003906 55.289062 L 150.242188 55.289062 L 150.582031 53.554688 C 150.59375 53.496094 150.601562 53.433594 150.601562 53.375 C 150.609375 53.210938 150.554688 53.070312 150.4375 52.957031 C 150.308594 52.84375 150.15625 52.792969 149.984375 52.804688 C 149.757812 52.804688 149.5625 52.878906 149.398438 53.035156 C 149.222656 53.195312 149.109375 53.398438 149.070312 53.636719 L 148.730469 55.292969 L 147.972656 55.292969 L 148.585938 52.160156 L 149.355469 52.160156 L 149.265625 52.605469 C 149.519531 52.261719 149.859375 52.101562 150.28125 52.117188 C 150.589844 52.101562 150.863281 52.195312 151.097656 52.390625 Z M 151.097656 52.390625 "/>
<g clip-path="url(#clip8)" clip-rule="nonzero">
<path style=" stroke:none;fill-rule:nonzero;fill:rgb(19.999695%,46.269226%,70.979309%);fill-opacity:1;" d="M 154.941406 52.164062 L 152.835938 55.71875 C 152.550781 56.21875 152.160156 56.46875 151.667969 56.46875 C 151.523438 56.46875 151.390625 56.445312 151.257812 56.390625 C 151.132812 56.335938 151.019531 56.257812 150.921875 56.164062 L 151.3125 55.628906 C 151.414062 55.722656 151.535156 55.765625 151.671875 55.765625 C 151.917969 55.753906 152.101562 55.644531 152.234375 55.4375 L 152.371094 55.242188 L 151.703125 52.164062 L 152.476562 52.164062 L 152.890625 54.46875 L 154.171875 52.164062 Z M 154.941406 52.164062 "/>
</g>
</g>
</svg>
